<svg width="371" height="25" viewBox="0 0 371 25" fill="none" xmlns="http://www.w3.org/2000/svg">
<rect x="20" width="102" height="25" rx="12.5" fill="#F6EEEE"/>
<path opacity="0.987" fill-rule="evenodd" clip-rule="evenodd" d="M70.209 6.06099C70.934 5.97999 71.363 5.97999 72.142 6.06099C73.5209 6.26509 74.7992 6.90248 75.792 7.88099C75.1211 8.51513 74.4591 9.15852 73.806 9.81099C72.5553 8.75099 71.1593 8.50633 69.618 9.07699C68.4873 9.59699 67.7 10.4397 67.256 11.605C66.5304 11.0648 65.8143 10.5121 65.108 9.94699C65.0589 9.92116 65.0028 9.9117 64.948 9.91999C66.07 7.75666 67.8233 6.46999 70.208 6.05999" fill="#F44336"/>
<path opacity="0.997" fill-rule="evenodd" clip-rule="evenodd" d="M64.946 9.92C65.0027 9.91133 65.0563 9.92033 65.107 9.947C65.8133 10.5121 66.5294 11.0648 67.255 11.605C67.1408 12.0591 67.0689 12.5227 67.04 12.99C67.0647 13.442 67.1363 13.8857 67.255 14.321L65 16.116C64.018 14.064 64 11.9987 64.946 9.92Z" fill="#FFC107"/>
<path opacity="0.999" fill-rule="evenodd" clip-rule="evenodd" d="M75.685 18.29C74.9829 17.6708 74.2478 17.0899 73.483 16.55C74.2497 16.0087 74.715 15.266 74.879 14.322H71.122V11.713C73.2887 11.695 75.4543 11.7133 77.619 11.768C78.0297 13.998 77.5553 16.0087 76.196 17.8C76.0344 17.9718 75.8632 18.1354 75.685 18.29Z" fill="#448AFF"/>
<path opacity="0.993" fill-rule="evenodd" clip-rule="evenodd" d="M67.255 14.322C68.075 16.36 69.5783 17.3114 71.765 17.176C72.3788 17.105 72.9673 16.8905 73.483 16.55C74.2483 17.0914 74.9823 17.6714 75.685 18.29C74.5716 19.2905 73.1521 19.8841 71.658 19.974C71.3185 20.0012 70.9775 20.0012 70.638 19.974C68.0927 19.674 66.2133 18.388 65 16.116L67.255 14.322Z" fill="#43A047"/>
<rect x="134.5" width="102" height="25" rx="12.5" fill="black"/>
<g clip-path="url(#clip0_37_34)">
<path d="M189.869 13.0005C189.849 10.9745 191.521 10.0025 191.596 9.95448C190.656 8.57948 189.192 8.39048 188.67 8.36948C187.424 8.24348 186.239 9.10348 185.606 9.10348C184.975 9.10348 183.999 8.38848 182.966 8.40748C181.608 8.42748 180.356 9.19748 179.656 10.4135C178.245 12.8615 179.295 16.4895 180.67 18.4745C181.342 19.4465 182.143 20.5385 183.195 20.4995C184.208 20.4595 184.591 19.8435 185.816 19.8435C187.041 19.8435 187.385 20.4995 188.457 20.4785C189.547 20.4585 190.238 19.4875 190.905 18.5125C191.677 17.3845 191.994 16.2935 192.013 16.2375C191.989 16.2265 189.887 15.4215 189.866 13.0015L189.869 13.0005ZM187.855 7.05448C188.413 6.37748 188.79 5.43748 188.687 4.49948C187.883 4.53248 186.908 5.03548 186.331 5.71148C185.813 6.31148 185.36 7.26848 185.481 8.18748C186.379 8.25748 187.296 7.73148 187.854 7.05548L187.855 7.05448Z" fill="white"/>
</g>
<rect x="249" width="102" height="25" rx="12.5" fill="#1877F2"/>
<g clip-path="url(#clip1_37_34)">
<path d="M307.5 12.5C307.5 8.35789 304.142 5 300 5C295.858 5 292.5 8.35789 292.5 12.5C292.5 16.2434 295.243 19.3463 298.828 19.9089V14.668H296.924V12.5H298.828V10.8477C298.828 8.96797 299.948 7.92969 301.661 7.92969C302.482 7.92969 303.34 8.07617 303.34 8.07617V9.92188H302.394C301.462 9.92188 301.172 10.5 301.172 11.0932V12.5H303.252L302.919 14.668H301.172V19.9089C304.757 19.3463 307.5 16.2435 307.5 12.5Z" fill="#1877F2"/>
<path d="M302.919 14.668L303.252 12.5H301.172V11.0932C301.172 10.5 301.462 9.92188 302.394 9.92188H303.34V8.07617C303.34 8.07617 302.482 7.92969 301.661 7.92969C299.948 7.92969 298.828 8.96797 298.828 10.8477V12.5H296.924V14.668H298.828V19.9089C299.216 19.9696 299.608 20.0001 300 20C300.392 20.0001 300.784 19.9696 301.172 19.9089V14.668H302.919Z" fill="white"/>
</g>
<defs>
<clipPath id="clip0_37_34">
<rect width="16" height="16.001" fill="white" transform="translate(177.5 4.49948)"/>
</clipPath>
<clipPath id="clip1_37_34">
<rect width="15" height="15" fill="white" transform="translate(292.5 5)"/>
</clipPath>
</defs>
</svg>
